<?xml version="1.0" encoding="UTF-8"?>
<svg version="1.1" xmlns="http://www.w3.org/2000/svg" width="1024" height="1024">
<path d="M0 0 C337.92 0 675.84 0 1024 0 C1024 337.92 1024 675.84 1024 1024 C686.08 1024 348.16 1024 0 1024 C0 686.08 0 348.16 0 0 Z " fill="#EAEBEB" transform="translate(0,0)"/>
<path d="M0 0 C15.81418464 12.27767921 26.46971352 30.02571355 29 50 C30.82162095 73.18853109 27.27201195 95.73814395 11.8203125 113.99609375 C11.21960938 114.65738281 10.61890625 115.31867188 10 116 C9.35804688 116.73347656 8.71609375 117.46695313 8.0546875 118.22265625 C-4.67934914 131.91996872 -23.7684856 141.57041132 -42.56640625 142.3359375 C-63.62805305 142.65714289 -81.72690928 139.22040602 -98 125 C-103.6397639 126.9951529 -107.75792753 129.90301045 -111 135 C-111.2703148 137.87622481 -111.2703148 137.87622481 -110.9375 140.875 C-110.72291439 144.3915765 -110.60782262 146.33405891 -112.41015625 149.39453125 C-114.34631946 151.51888229 -116.35365321 153.5254257 -118.44677734 155.49462891 C-120.84482352 157.81879626 -123.07886869 160.28907327 -125.34204102 162.74365234 C-133.03564675 171.0654437 -141.01340762 179.09449859 -149.08520508 187.04833984 C-153.39613047 191.3135756 -157.52917008 195.62601418 -161.40991211 200.28881836 C-165.15497282 204.3190856 -168.28297767 205.85926046 -173.8125 206.3125 C-178.20360994 206.24804334 -180.61154946 204.84937886 -184 202 C-187.63407083 197.87483852 -189.18589225 195.34937476 -189.4375 189.875 C-189.49808594 188.96492187 -189.55867188 188.05484375 -189.62109375 187.1171875 C-187.70784319 177.51483564 -177.31221304 170.1159877 -170.5625 163.5 C-161.34226089 154.47623474 -161.34226089 154.47623474 -152.66625977 144.93505859 C-149.29885702 141.02443088 -145.75879798 137.28628722 -142.1875 133.5625 C-141.44435547 132.74845703 -140.70121094 131.93441406 -139.93554688 131.09570312 C-135.10271776 126.10469356 -132.12846458 124.28820656 -125.1574707 124.16723633 C-122.79013741 124.1736327 -122.79013741 124.1736327 -120.5625 122.22265625 C-120.046875 121.50980469 -119.53125 120.79695312 -119 120.0625 C-118.46375 119.35222656 -117.9275 118.64195312 -117.375 117.91015625 C-116.92125 117.27980469 -116.4675 116.64945313 -116 116 C-115.34 115.34 -114.68 114.68 -114 114 C-114.29506605 109.34638683 -116.66356522 105.53222185 -118.8125 101.5 C-128.27451001 83.19146381 -131.90372045 60.24359915 -126.16796875 40.07421875 C-122.06323977 29.27013277 -116.86565667 19.55026012 -109 11 C-108.26265625 10.17113281 -107.5253125 9.34226562 -106.765625 8.48828125 C-77.80439242 -22.41316462 -33.42375354 -24.60644432 0 0 Z " fill="#F1F1F1" transform="translate(546,383)"/>
<path d="M0 0 C15.81418464 12.27767921 26.46971352 30.02571355 29 50 C30.82162095 73.18853109 27.27201195 95.73814395 11.8203125 113.99609375 C11.21960938 114.65738281 10.61890625 115.31867188 10 116 C9.35804688 116.73347656 8.71609375 117.46695313 8.0546875 118.22265625 C-4.67934914 131.91996872 -23.7684856 141.57041132 -42.56640625 142.3359375 C-63.62805305 142.65714289 -81.72690928 139.22040602 -98 125 C-103.6397639 126.9951529 -107.75792753 129.90301045 -111 135 C-111.2703148 137.87622481 -111.2703148 137.87622481 -110.9375 140.875 C-110.72291439 144.3915765 -110.60782262 146.33405891 -112.41015625 149.39453125 C-114.34631946 151.51888229 -116.35365321 153.5254257 -118.44677734 155.49462891 C-120.84482352 157.81879626 -123.07886869 160.28907327 -125.34204102 162.74365234 C-133.03564675 171.0654437 -141.01340762 179.09449859 -149.08520508 187.04833984 C-153.39613047 191.3135756 -157.52917008 195.62601418 -161.40991211 200.28881836 C-165.15497282 204.3190856 -168.28297767 205.85926046 -173.8125 206.3125 C-178.20360994 206.24804334 -180.61154946 204.84937886 -184 202 C-187.63407083 197.87483852 -189.18589225 195.34937476 -189.4375 189.875 C-189.49808594 188.96492187 -189.55867188 188.05484375 -189.62109375 187.1171875 C-187.70784319 177.51483564 -177.31221304 170.1159877 -170.5625 163.5 C-161.34226089 154.47623474 -161.34226089 154.47623474 -152.66625977 144.93505859 C-149.29885702 141.02443088 -145.75879798 137.28628722 -142.1875 133.5625 C-141.44435547 132.74845703 -140.70121094 131.93441406 -139.93554688 131.09570312 C-135.10271776 126.10469356 -132.12846458 124.28820656 -125.1574707 124.16723633 C-122.79013741 124.1736327 -122.79013741 124.1736327 -120.5625 122.22265625 C-120.046875 121.50980469 -119.53125 120.79695312 -119 120.0625 C-118.46375 119.35222656 -117.9275 118.64195312 -117.375 117.91015625 C-116.92125 117.27980469 -116.4675 116.64945313 -116 116 C-115.34 115.34 -114.68 114.68 -114 114 C-114.29506605 109.34638683 -116.66356522 105.53222185 -118.8125 101.5 C-128.27451001 83.19146381 -131.90372045 60.24359915 -126.16796875 40.07421875 C-122.06323977 29.27013277 -116.86565667 19.55026012 -109 11 C-108.26265625 10.17113281 -107.5253125 9.34226562 -106.765625 8.48828125 C-77.80439242 -22.41316462 -33.42375354 -24.60644432 0 0 Z M-97.27539062 23.61181641 C-108.92698802 39.47909018 -112.86759604 55.95734998 -110.609375 75.35546875 C-107.0535487 91.88094354 -97.63971578 105.64555696 -83.86328125 115.2109375 C-69.13611914 124.41290237 -51.57526215 126.63325029 -34.625 122.9375 C-18.10937558 117.8897669 -4.0073935 107.75855959 4.39453125 92.4609375 C12.13476138 77.33737546 14.86573172 60.44841865 10.03515625 43.8671875 C4.26147635 27.87518355 -5.71880334 15.70451734 -20.8125 7.75 C-47.14440465 -4.51142125 -78.42293429 -0.21358878 -97.27539062 23.61181641 Z " fill="#3E2C62" transform="translate(546,383)"/>
<path d="M0 0 C4.06467874 2.24614049 7.75750677 4.43148878 11.3125 7.4375 C15.98937237 11.26726763 20.83371747 14.80101664 25.75 18.3125 C36.14997162 25.76051461 46.50496696 33.40925582 56 42 C56 42.33 56 42.66 56 43 C45.11 43 34.22 43 23 43 C23 71.71 23 100.42 23 130 C18.2201855 129.31716936 14.6848542 128.68135506 10.25 127.25 C3.18103614 125.18287503 -3.95113681 123.73396997 -11.1875 122.375 C-12.26032227 122.16907227 -13.33314453 121.96314453 -14.43847656 121.75097656 C-30.48717772 118.81355484 -46.45358902 117.61432606 -62.75 117.6875 C-63.58229126 117.68899048 -64.41458252 117.69048096 -65.27209473 117.6920166 C-88.11178599 117.76473719 -110.78018367 119.42621556 -133 125 C-134.98 125.495 -134.98 125.495 -137 126 C-137 113.46 -137 100.92 -137 88 C-132.98032804 89.60786878 -129.37331771 91.35724912 -125.5625 93.375 C-105.47971678 103.44654594 -82.72952354 103.85243377 -61.34448242 97.09887695 C-38.72043638 89.50631368 -19.98640729 75.63046194 -9 54 C-7.17536628 49.71893419 -5.53813447 45.39148536 -4 41 C-3.46632813 39.56914062 -3.46632813 39.56914062 -2.921875 38.109375 C-0.51215817 29.98168602 -0.70836068 21.41000204 -0.4375 13 C-0.37272461 11.12248047 -0.37272461 11.12248047 -0.30664062 9.20703125 C-0.20121983 6.13811477 -0.09909658 3.06912611 0 0 Z " fill="#85A539" transform="translate(584,431)"/>
<path d="M0 0 C9.05637712 5.06462902 15.41257663 12.04859534 18.77734375 22.0234375 C21.02353031 32.80135787 18.4772601 42.73355571 13.3671875 52.19140625 C12.97716553 52.9194043 12.58714355 53.64740234 12.18530273 54.39746094 C4.93479675 67.57197114 -4.48543281 79.4582905 -13.7578125 91.25390625 C-16.75240929 89.94401937 -18.47940762 88.70770705 -20.421875 86.0859375 C-20.89931152 85.4475293 -21.37674805 84.80912109 -21.86865234 84.15136719 C-22.61816162 83.11931152 -22.61816162 83.11931152 -23.3828125 82.06640625 C-23.90697754 81.35387695 -24.43114258 80.64134766 -24.97119141 79.90722656 C-50.68805548 44.67971092 -50.68805548 44.67971092 -48.7578125 27.25390625 C-46.98489111 17.65058206 -42.26271523 9.64532843 -34.625 3.53515625 C-24.21571282 -3.60761822 -11.68019987 -5.4954383 0 0 Z " fill="#3F2D63" transform="translate(513.7578125,400.74609375)"/>
<path d="M0 0 C0.74507812 0.38607422 1.49015625 0.77214844 2.2578125 1.16992188 C2.97453125 1.54826172 3.69125 1.92660156 4.4296875 2.31640625 C5.06890137 2.6522876 5.70811523 2.98816895 6.36669922 3.33422852 C8.23601206 4.50715614 9.62785757 5.82428439 11.125 7.4375 C7.72715116 6.8477073 4.79435612 5.9759798 1.63671875 4.6015625 C-4.45278561 2.10347789 -10.69944831 0.46069448 -17.0625 -1.1875 C-19.32692439 -1.78346876 -21.5912502 -2.37981219 -23.85546875 -2.9765625 C-24.91459473 -3.25258301 -25.9737207 -3.52860352 -27.06494141 -3.81298828 C-29.21238853 -4.38576523 -31.34623218 -5.00978014 -33.47265625 -5.65625 C-41.8022863 -7.87493447 -50.46623371 -8.80828341 -58.98925781 -10.01269531 C-61.57319195 -10.37830349 -64.15591039 -10.75261236 -66.73730469 -11.13574219 C-100.39088781 -16.04581414 -135.11702168 -16.54272384 -168.94091797 -12.87011719 C-172.1049246 -12.53839408 -175.2710328 -12.27143217 -178.44140625 -12.0078125 C-193.05382657 -10.70003712 -206.85672249 -7.90989735 -221.015625 -4.0859375 C-225.30817549 -2.92941648 -229.45647881 -2.03500082 -233.875 -1.5625 C-230.15426784 -4.73201258 -225.93614871 -6.49995703 -221.5 -8.4375 C-220.28582397 -8.96802979 -220.28582397 -8.96802979 -219.04711914 -9.50927734 C-196.85488179 -19.10130174 -173.8817985 -24.10503409 -149.875 -26.5625 C-148.1115625 -26.75972656 -148.1115625 -26.75972656 -146.3125 -26.9609375 C-97.07226695 -31.51565906 -43.91082169 -23.24921184 0 0 Z " fill="#69842D" transform="translate(638.875,582.5625)"/>
<path d="M0 0 C4.31242857 3.27744571 8.13122742 7.23743225 9.85546875 12.41015625 C10.54440805 19.60465097 10.81366682 25.81932082 6.33203125 31.765625 C1.58617013 37.05135921 -3.16311806 40.14386461 -10.14453125 41.41015625 C-16.52426474 41.65071935 -21.21355665 40.66872523 -26.14453125 36.41015625 C-31.29063029 31.20220506 -34.41026741 26.64778733 -34.51953125 19.09765625 C-34.37452632 12.75155827 -32.84085279 8.34150823 -28.53125 3.65625 C-20.75018436 -3.50371062 -9.40019601 -5.40753543 0 0 Z " fill="#F0F0F1" transform="translate(511.14453125,412.58984375)"/>
<path d="M0 0 C-0.66 0.99 -1.32 1.98 -2 3 C-6.27844211 3.83653122 -10.64856066 3.84798465 -15 4 C-16.03640625 4.04125 -17.0728125 4.0825 -18.140625 4.125 C-24.97673031 4.26816451 -31.32857561 3.47086522 -38 2 C-38 1.34 -38 0.68 -38 0 C-25.87564834 -4.39933278 -12.04355536 -4.97129558 0 0 Z " fill="#E7E7E9" transform="translate(516,387)"/>
<path d="M0 0 C12.87 0 25.74 0 39 0 C39 0.66 39 1.32 39 2 C39.66 2.33 40.32 2.66 41 3 C34.61878587 5.29069225 28.60911337 5.29897537 21.875 5.25 C20.80378906 5.25773438 19.73257812 5.26546875 18.62890625 5.2734375 C17.59378906 5.27085937 16.55867188 5.26828125 15.4921875 5.265625 C14.55745605 5.26336914 13.62272461 5.26111328 12.65966797 5.25878906 C9.79019983 4.97958618 7.61225649 4.19109907 5 3 C5 2.34 5 1.68 5 1 C3.35 1 1.7 1 0 1 C0 0.67 0 0.34 0 0 Z " fill="#39265C" transform="translate(475,520)"/>
<path d="M0 0 C0 0.66 0 1.32 0 2 C-1.32 2 -2.64 2 -4 2 C-4 2.66 -4 3.32 -4 4 C-4.99 4.66 -5.98 5.32 -7 6 C-5.68 6.66 -4.36 7.32 -3 8 C-7.01953458 8.98455006 -11.04083975 9.96167239 -15.0625 10.9375 C-16.19623047 11.21529297 -17.32996094 11.49308594 -18.49804688 11.77929688 C-23.98697972 13.10752261 -29.38658197 14.35637152 -35 15 C-31.2396394 11.78113132 -26.93012748 10.01968425 -22.4375 8.0625 C-21.63699219 7.71058594 -20.83648437 7.35867188 -20.01171875 6.99609375 C-3.94661458 0 -3.94661458 0 0 0 Z " fill="#7F9B34" transform="translate(440,566)"/>
<path d="M0 0 C1.18529297 0.10828125 1.18529297 0.10828125 2.39453125 0.21875 C12.61322843 1.0596028 22.75339576 1.09831497 33 1 C32 3 32 3 30.23046875 3.6171875 C20.47517252 5.29147652 9.83028572 3.6453646 0 3 C0 2.01 0 1.02 0 0 Z " fill="#F7F7F6" transform="translate(477,389)"/>
<path d="M0 0 C4.90406787 1.46741876 9.20535074 3.52130678 13.6875 5.9375 C14.68233398 6.45860352 14.68233398 6.45860352 15.69726562 6.99023438 C18.85690239 8.67982866 21.67973165 10.22784418 24 13 C20.49374747 12.39590321 17.45452631 11.46114616 14.1875 10.0625 C9.83123122 8.26643716 5.59600462 7.02133436 1 6 C1.66 5.34 2.32 4.68 3 4 C2.01 3.34 1.02 2.68 0 2 C0 1.34 0 0.68 0 0 Z " fill="#79943B" transform="translate(626,577)"/>
<path d="M0 0 C1.32 1.32 2.64 2.64 4 4 C3.89756469 7.17549446 3.55166944 9.89414452 3 13 C2.64074417 15.52011309 2.28678957 18.04098626 1.9375 20.5625 C1.62638183 22.70853412 1.31435689 24.85443791 1 27 C0.67 27 0.34 27 0 27 C0 18.09 0 9.18 0 0 Z " fill="#36255A" transform="translate(433,423)"/>
<path d="M0 0 C6.93 0 13.86 0 21 0 C19.02 0.99 19.02 0.99 17 2 C16.34 2.66 15.68 3.32 15 4 C11.306493 4.20146402 8.52059568 4.17353189 5 3 C5 2.34 5 1.68 5 1 C3.35 1 1.7 1 0 1 C0 0.67 0 0.34 0 0 Z " fill="#332153" transform="translate(475,520)"/>
<path d="M0 0 C1.72880982 -0.05449838 3.45812712 -0.09301688 5.1875 -0.125 C6.15042969 -0.14820313 7.11335938 -0.17140625 8.10546875 -0.1953125 C11.12812778 0.0086456 13.26769985 0.73125368 16 2 C15.34 3.32 14.68 4.64 14 6 C12.02 6 10.04 6 8 6 C8 5.34 8 4.68 8 4 C5.4345406 1.4345406 3.52313332 1.45953913 0 1 C0 0.67 0 0.34 0 0 Z " fill="#E8E8EC" transform="translate(494,410)"/>
<path d="M0 0 C0 0.66 0 1.32 0 2 C1.65 2 3.3 2 5 2 C1.91450652 3.66645757 -1.12675325 4.73761596 -4.5 5.6875 C-5.4384375 5.95949219 -6.376875 6.23148438 -7.34375 6.51171875 C-10.00766466 7.00140894 -11.47611372 6.88693174 -14 6 C-12.04414675 4.99515796 -10.08523763 3.99626195 -8.125 3 C-6.48917969 2.1646875 -6.48917969 2.1646875 -4.8203125 1.3125 C-2 0 -2 0 0 0 Z " fill="#849F43" transform="translate(419,574)"/>
<path d="M0 0 C2.49505962 2.49505962 2.35948376 3.67328888 2.625 7.125 C2.69976562 8.03507812 2.77453125 8.94515625 2.8515625 9.8828125 C2.90054687 10.58148438 2.94953125 11.28015625 3 12 C2.01 12 1.02 12 0 12 C-0.66 12.66 -1.32 13.32 -2 14 C-2.21192221 8.80790596 -1.5912689 4.873261 0 0 Z " fill="#372959" transform="translate(434,453)"/>
<path d="M0 0 C0.99 0 1.98 0 3 0 C1.79618552 2.49361571 0.54571278 4.68143083 -1 7 C-3.31 6.67 -5.62 6.34 -8 6 C-7.67 5.01 -7.34 4.02 -7 3 C-3.535 2.505 -3.535 2.505 0 2 C0 1.34 0 0.68 0 0 Z " fill="#F4F3F3" transform="translate(424,501)"/>
<path d="M0 0 C0 0.66 0 1.32 0 2 C-1.32 2 -2.64 2 -4 2 C-4 2.66 -4 3.32 -4 4 C-10.435 5.98 -10.435 5.98 -17 8 C-17.33 7.34 -17.66 6.68 -18 6 C-15.37646482 4.99600476 -12.75132205 3.99665555 -10.125 3 C-9.37863281 2.71382812 -8.63226563 2.42765625 -7.86328125 2.1328125 C-2.2265625 0 -2.2265625 0 0 0 Z " fill="#86A140" transform="translate(440,566)"/>
<path d="M0 0 C7.42857143 -0.28571429 7.42857143 -0.28571429 11 2 C11 2.66 11 3.32 11 4 C9.741875 4.020625 8.48375 4.04125 7.1875 4.0625 C6.47980469 4.07410156 5.77210938 4.08570313 5.04296875 4.09765625 C3 4 3 4 0 3 C0 2.01 0 1.02 0 0 Z " fill="#382456" transform="translate(413,508)"/>
<path d="M0 0 C2.97 0.495 2.97 0.495 6 1 C6 1.99 6 2.98 6 4 C3.6875 4.625 3.6875 4.625 1 5 C0.01 4.34 -0.98 3.68 -2 3 C-1.34 3 -0.68 3 0 3 C0 2.01 0 1.02 0 0 Z " fill="#36275B" transform="translate(521,371)"/>
<path d="M0 0 C5.28 1.65 10.56 3.3 16 5 C16 5.33 16 5.66 16 6 C13.66666667 5.66666667 11.33333333 5.33333333 9 5 C7.741875 4.896875 6.48375 4.79375 5.1875 4.6875 C3.6096875 4.3471875 3.6096875 4.3471875 2 4 C1.34 2.68 0.68 1.36 0 0 Z " fill="#708C2F" transform="translate(600,567)"/>
<path d="M0 0 C2.64 0 5.28 0 8 0 C8 0.66 8 1.32 8 2 C5.42786866 3.61949011 4.32330841 4.04408751 1.25 3.625 C0.5075 3.41875 -0.235 3.2125 -1 3 C-0.67 2.01 -0.34 1.02 0 0 Z " fill="#352453" transform="translate(458,512)"/>
<path d="M0 0 C2.475 0.99 2.475 0.99 5 2 C5 2.99 5 3.98 5 5 C1.25 6.125 1.25 6.125 -1 5 C-0.67 3.35 -0.34 1.7 0 0 Z " fill="#332456" transform="translate(537,378)"/>
<path d="M0 0 C1.50433594 0.29197266 1.50433594 0.29197266 3.0390625 0.58984375 C4.19535156 0.82380859 4.19535156 0.82380859 5.375 1.0625 C5.375 1.3925 5.375 1.7225 5.375 2.0625 C0.755 2.3925 -3.865 2.7225 -8.625 3.0625 C-8.295 2.0725 -7.965 1.0825 -7.625 0.0625 C-4.81015955 -1.34492022 -3.05563887 -0.60402164 0 0 Z " fill="#352459" transform="translate(472.625,372.9375)"/>
<path d="M0 0 C2.31 0 4.62 0 7 0 C7 0.99 7 1.98 7 3 C4.36 3 1.72 3 -1 3 C-0.67 2.01 -0.34 1.02 0 0 Z " fill="#729026" transform="translate(420,573)"/>
<path d="M0 0 C0.99 1.485 0.99 1.485 2 3 C4.20725073 3.36362818 4.20725073 3.36362818 6.625 3.1875 C7.44226563 3.16042969 8.25953125 3.13335938 9.1015625 3.10546875 C9.72804688 3.07066406 10.35453125 3.03585937 11 3 C7.36383344 4.9789756 4.11574371 5.5251065 0 6 C0 4.02 0 2.04 0 0 Z " fill="#6D8D2C" transform="translate(448,550)"/>
<path d="M0 0 C0.66 0 1.32 0 2 0 C2.33 1.98 2.66 3.96 3 6 C2.01 6 1.02 6 0 6 C-0.38218767 4.34385343 -0.71395102 2.67542976 -1 1 C-0.67 0.67 -0.34 0.34 0 0 Z " fill="#342359" transform="translate(433,511)"/>
<path d="M0 0 C-1.98 0.99 -1.98 0.99 -4 2 C-3.67 2.66 -3.34 3.32 -3 4 C-5.4375 3.625 -5.4375 3.625 -8 3 C-8.33 2.34 -8.66 1.68 -9 1 C-5.57367167 -0.61798838 -3.61944899 -1.34053666 0 0 Z " fill="#4D3E70" transform="translate(478,370)"/>
<path d="M0 0 C0.66 0.66 1.32 1.32 2 2 C3.31747324 2.69748583 4.64914193 3.36959957 6 4 C5 5 5 5 2.4375 5.0625 C1.2309375 5.0315625 1.2309375 5.0315625 0 5 C-0.5625 3.0625 -0.5625 3.0625 -1 1 C-0.67 0.67 -0.34 0.34 0 0 Z " fill="#F8FAF5" transform="translate(517,523)"/>
<path d="M0 0 C2.125 0.9375 2.125 0.9375 4 2 C2 4 2 4 -0.625 4.125 C-1.40875 4.08375 -2.1925 4.0425 -3 4 C-2.67 3.01 -2.34 2.02 -2 1 C-1.34 0.67 -0.68 0.34 0 0 Z " fill="#372759" transform="translate(519,384)"/>
<path d="M0 0 C2.64 1.32 5.28 2.64 8 4 C3.82412255 5.39195915 1.86525224 3.82323219 -2 2 C-1.34 1.34 -0.68 0.68 0 0 Z " fill="#8AA35B" transform="translate(642,585)"/>
<path d="M0 0 C0.103125 0.639375 0.20625 1.27875 0.3125 1.9375 C0.539375 2.618125 0.76625 3.29875 1 4 C1.99 4.33 2.98 4.66 4 5 C1.69 5 -0.62 5 -3 5 C-3.33 4.34 -3.66 3.68 -4 3 C-2.68 2.67 -1.36 2.34 0 2 C0 1.34 0 0.68 0 0 Z " fill="#738F25" transform="translate(436,568)"/>
<path d="M0 0 C1.32 0.33 2.64 0.66 4 1 C4.33 2.32 4.66 3.64 5 5 C4.01 5 3.02 5 2 5 C1.34 3.35 0.68 1.7 0 0 Z " fill="#362555" transform="translate(548,410)"/>
</svg>
